<svg width="25.000000" height="24.999977" viewBox="0 0 25 25" fill="none" xmlns="http://www.w3.org/2000/svg" xmlns:xlink="http://www.w3.org/1999/xlink">
	<desc>
			Created with Pixso.
	</desc>
	<defs/>
	<path id="Union" d="M15.7461 12.5L24.4023 20.9135C25.1992 21.688 25.1992 22.9436 24.4023 23.718C23.6055 24.4925 22.314 24.4925 21.5171 23.718L12.8608 15.3045L3.48291 24.4191C2.68604 25.1936 1.39453 25.1936 0.597656 24.4191C-0.199219 23.6447 -0.199219 22.3891 0.597656 21.6146L9.9751 12.5L0.597656 3.38534C-0.199219 2.6109 -0.199219 1.35528 0.597656 0.580833C1.39453 -0.193611 2.68604 -0.193611 3.48291 0.580833L12.8608 9.69545L21.5171 1.28194C22.3135 0.507494 23.6055 0.507494 24.4023 1.28194C25.1992 2.05638 25.1992 3.312 24.4023 4.08645L15.7461 12.5Z" clip-rule="evenodd" fill="#CD3B31" fill-opacity="1.000000" fill-rule="evenodd"/>
</svg>
