<svg width="20.000000" height="20.000000" viewBox="0 0 20 20" fill="none" xmlns="http://www.w3.org/2000/svg" xmlns:xlink="http://www.w3.org/1999/xlink">
	<desc>
			Created with Pixso.
	</desc>
	<defs>
		<clipPath id="clip2_6">
			<rect id="search_FILL0_wght400_GRAD0_opsz48" width="20.000000" height="20.000000" fill="white" fill-opacity="0"/>
		</clipPath>
	</defs>
	<rect id="search_FILL0_wght400_GRAD0_opsz48" width="20.000000" height="20.000000" fill="#FFFFFF" fill-opacity="0"/>
	<g clip-path="url(#clip2_6)">
		<path id="Vector" d="M16.58 17.47L11.1 12C10.68 12.36 10.2 12.64 9.64 12.84C9.09 13.04 8.5 13.14 7.87 13.14C6.37 13.14 5.1 12.62 4.06 11.58C3.02 10.54 2.5 9.28 2.5 7.81C2.5 6.34 3.02 5.08 4.06 4.04C5.1 3 6.36 2.47 7.85 2.47C9.32 2.47 10.58 3 11.61 4.04C12.64 5.08 13.16 6.34 13.16 7.81C13.16 8.4 13.06 8.98 12.87 9.54C12.68 10.09 12.38 10.61 12 11.1L17.5 16.56L16.58 17.47ZM7.85 11.89C8.97 11.89 9.93 11.49 10.72 10.69C11.52 9.89 11.91 8.93 11.91 7.81C11.91 6.68 11.52 5.72 10.72 4.92C9.93 4.12 8.97 3.72 7.85 3.72C6.71 3.72 5.74 4.12 4.94 4.92C4.14 5.72 3.75 6.68 3.75 7.81C3.75 8.93 4.14 9.89 4.94 10.69C5.74 11.49 6.71 11.89 7.85 11.89Z" fill="#6B7073" fill-opacity="1.000000" fill-rule="nonzero"/>
	</g>
</svg>
