<svg width="22.966797" height="19.140137" viewBox="0 0 22.9668 19.1401" fill="none" xmlns="http://www.w3.org/2000/svg" xmlns:xlink="http://www.w3.org/1999/xlink">
	<desc>
			Created with Pixso.
	</desc>
	<defs/>
	<path id="Vector" d="M22.96 1.38C22.93 1.48 22.93 1.58 22.91 1.67C22.75 2.39 22.6 3.1 22.45 3.82C22.19 5.02 21.94 6.22 21.68 7.41C21.38 8.84 21.07 10.26 20.77 11.69C20.5 12.97 20.22 14.26 19.95 15.55C19.77 16.38 19.59 17.2 19.41 18.03C19.37 18.23 19.3 18.41 19.21 18.59C18.95 19.06 18.54 19.23 18.03 19.09C17.74 19.01 17.49 18.86 17.25 18.68C15.61 17.47 13.95 16.26 12.3 15.05C12.25 15.02 12.23 15.01 12.18 15.06C11.31 15.89 10.44 16.72 9.58 17.55C9.38 17.73 9.18 17.88 8.91 17.93C8.83 17.94 8.75 17.95 8.67 17.95C8.64 17.95 8.63 17.94 8.63 17.91C8.67 17.37 8.71 16.82 8.75 16.28C8.77 15.92 8.8 15.56 8.82 15.2C8.86 14.68 8.9 14.17 8.93 13.66C8.95 13.36 8.98 13.06 8.99 12.76C9 12.66 9.03 12.59 9.1 12.53C10.77 11.03 12.44 9.53 14.11 8.03C15.49 6.79 16.87 5.55 18.25 4.31C18.42 4.16 18.6 4 18.77 3.85C18.83 3.8 18.89 3.74 18.92 3.67C18.97 3.56 18.94 3.48 18.83 3.44C18.72 3.41 18.6 3.42 18.5 3.45C18.38 3.48 18.27 3.53 18.16 3.6C15.81 5.07 13.45 6.54 11.1 8.02C9.43 9.06 7.76 10.11 6.09 11.15C6.06 11.17 6.03 11.19 5.99 11.17C4.25 10.63 2.51 10.09 0.78 9.55C0.57 9.49 0.38 9.4 0.21 9.25C-0.05 9.03 -0.08 8.75 0.14 8.48C0.33 8.25 0.58 8.11 0.85 7.99C1.36 7.77 1.88 7.59 2.4 7.39C5.52 6.19 8.64 5 11.75 3.81C14.34 2.81 16.93 1.82 19.52 0.83C20.17 0.58 20.82 0.33 21.47 0.09C21.71 0 21.96 -0.04 22.22 0.03C22.61 0.13 22.82 0.4 22.92 0.78C22.93 0.85 22.95 0.93 22.96 1.01C22.96 1.13 22.96 1.26 22.96 1.38Z" fill="#6B7073" fill-opacity="1.000000" fill-rule="nonzero"/>
</svg>
