<svg width="22.984863" height="22.984863" viewBox="0 0 22.9849 22.9849" fill="none" xmlns="http://www.w3.org/2000/svg" xmlns:xlink="http://www.w3.org/1999/xlink">
	<desc>
			Created with Pixso.
	</desc>
	<defs>
		<clipPath id="clip2_32">
			<rect id="вк 1" width="22.984848" height="22.984848" fill="white" fill-opacity="0"/>
		</clipPath>
	</defs>
	<rect id="вк 1" width="22.984848" height="22.984848" fill="#FFFFFF" fill-opacity="0"/>
	<g clip-path="url(#clip2_32)">
		<path id="Vector" d="M13.42 7.99C13.42 8.83 13.42 9.67 13.42 10.51C13.43 10.67 13.45 10.84 13.5 11C13.58 11.26 13.77 11.35 14.03 11.25C14.18 11.19 14.33 11.1 14.45 11C14.94 10.61 15.32 10.13 15.67 9.64C16.63 8.32 17.39 6.89 18.04 5.41C18.2 5.04 18.43 4.74 18.84 4.65C18.95 4.63 19.07 4.62 19.18 4.62C20.01 4.62 20.84 4.61 21.66 4.62C21.8 4.62 21.93 4.63 22.06 4.67C22.38 4.75 22.54 4.99 22.48 5.32C22.41 5.73 22.26 6.1 22.08 6.47C21.63 7.39 21.11 8.26 20.56 9.12C20.1 9.84 19.62 10.55 19.16 11.26C19.07 11.39 18.99 11.53 18.92 11.67C18.8 11.88 18.79 12.09 18.93 12.29C19.09 12.51 19.25 12.74 19.45 12.93C20.21 13.68 20.93 14.45 21.6 15.28C22 15.77 22.4 16.25 22.7 16.82C22.81 17.03 22.9 17.27 22.95 17.51C23.05 17.96 22.8 18.28 22.34 18.36C22.22 18.38 22.1 18.38 21.98 18.38C21.19 18.39 20.39 18.38 19.6 18.39C19.21 18.39 18.86 18.27 18.59 18C18.26 17.68 17.95 17.34 17.64 17C16.96 16.26 16.28 15.52 15.48 14.9C15.19 14.68 14.88 14.47 14.53 14.33C14.32 14.24 14.1 14.22 13.87 14.25C13.63 14.27 13.51 14.38 13.46 14.62C13.43 14.78 13.42 14.95 13.42 15.11C13.42 15.85 13.42 16.58 13.42 17.31C13.42 17.41 13.42 17.51 13.41 17.6C13.36 17.97 13.15 18.17 12.71 18.26C12.23 18.37 11.75 18.38 11.27 18.35C9.49 18.24 7.94 17.54 6.53 16.48C5.47 15.67 4.6 14.67 3.84 13.57C2.71 11.94 1.71 10.23 0.92 8.41C0.55 7.55 0.22 6.67 0.04 5.75C0 5.54 -0.01 5.32 0 5.11C0.02 4.86 0.18 4.71 0.41 4.64C0.52 4.61 0.64 4.59 0.76 4.59C1.65 4.59 2.53 4.59 3.42 4.59C3.84 4.59 4.15 4.77 4.31 5.16C4.45 5.47 4.56 5.79 4.68 6.1C5.28 7.71 6.01 9.25 6.96 10.69C7.27 11.16 7.6 11.62 8.03 12C8.16 12.12 8.3 12.22 8.46 12.3C8.75 12.44 8.99 12.32 9.06 12C9.09 11.84 9.11 11.67 9.11 11.51C9.11 10.24 9.12 8.96 9.11 7.69C9.1 7.01 8.9 6.38 8.46 5.84C8.38 5.75 8.3 5.65 8.23 5.55C8.1 5.35 8.07 5.13 8.18 4.91C8.31 4.69 8.51 4.59 8.76 4.59C9.32 4.59 9.88 4.59 10.43 4.59C11.17 4.59 11.9 4.59 12.64 4.59C12.72 4.59 12.8 4.59 12.88 4.61C13.14 4.64 13.31 4.8 13.37 5.06C13.4 5.22 13.42 5.39 13.42 5.56C13.42 6.37 13.42 7.18 13.42 7.99Z" fill="#6B7073" fill-opacity="1.000000" fill-rule="nonzero"/>
	</g>
</svg>
